<?xml version="1.0" encoding="UTF-8" standalone="no"?>
<!-- Generator: Adobe Illustrator 16.0.0, SVG Export Plug-In . SVG Version: 6.00 Build 0)  -->

<svg
   xmlns:dc="http://purl.org/dc/elements/1.1/"
   xmlns:cc="http://creativecommons.org/ns#"
   xmlns:rdf="http://www.w3.org/1999/02/22-rdf-syntax-ns#"
   xmlns:svg="http://www.w3.org/2000/svg"
   xmlns="http://www.w3.org/2000/svg"
   xmlns:sodipodi="http://sodipodi.sourceforge.net/DTD/sodipodi-0.dtd"
   xmlns:inkscape="http://www.inkscape.org/namespaces/inkscape"
   version="1.1"
   id="Layer_1"
   x="0px"
   y="0px"
   width="208.492px"
   height="39.719px"
   viewBox="0 0 208.492 39.719"
   enable-background="new 0 0 208.492 39.719"
   xml:space="preserve"
   inkscape:version="0.91 r13725"
   sodipodi:docname="57ab9aa2e18710ca16414d6c_peach-logo.svg"><metadata
     id="metadata27"><rdf:RDF><cc:Work
         rdf:about=""><dc:format>image/svg+xml</dc:format><dc:type
           rdf:resource="http://purl.org/dc/dcmitype/StillImage" /><dc:title></dc:title></cc:Work></rdf:RDF></metadata><defs
     id="defs25" /><sodipodi:namedview
     pagecolor="#ffffff"
     bordercolor="#666666"
     borderopacity="1"
     objecttolerance="10"
     gridtolerance="10"
     guidetolerance="10"
     inkscape:pageopacity="0"
     inkscape:pageshadow="2"
     inkscape:window-width="1422"
     inkscape:window-height="747"
     id="namedview23"
     showgrid="false"
     inkscape:zoom="1.3813479"
     inkscape:cx="104.246"
     inkscape:cy="19.859501"
     inkscape:window-x="-8"
     inkscape:window-y="-8"
     inkscape:window-maximized="1"
     inkscape:current-layer="Layer_1" /><g
     id="g3"><g
       id="g5"><path
         d="M94.309,16.463c1.75,1.464,2.627,3.72,2.627,6.768c0,3.048-0.895,5.28-2.682,6.696c-1.789,1.417-4.531,2.124-8.226,2.124    h-4.464v7.38h-4.248V14.267h8.64C89.772,14.267,92.555,14.999,94.309,16.463z M91.301,26.849c0.854-0.9,1.279-2.22,1.279-3.96    c0-1.74-0.541-2.97-1.621-3.69c-1.08-0.72-2.771-1.08-5.075-1.08h-4.32v10.08h4.932C88.848,28.199,90.45,27.749,91.301,26.849z"
         id="path7" /><path
         d="M121.837,14.267v3.996H108.41v6.66h12.06v3.78h-12.06v6.732h13.859v3.996h-18.107V14.267H121.837z"
         id="path9" /><path
         d="M134.584,33.707l-2.52,5.724h-4.536l11.088-25.164h4.536l11.088,25.164h-4.536l-2.52-5.724H134.584z M145.457,29.783    l-4.571-10.368l-4.572,10.368H145.457z"
         id="path11" /><path
         d="M170.547,35.579c1.464,0,2.724-0.246,3.78-0.738c1.056-0.492,2.16-1.278,3.312-2.358l2.735,2.808    c-2.664,2.952-5.898,4.428-9.702,4.428s-6.96-1.224-9.468-3.672c-2.508-2.448-3.762-5.544-3.762-9.288    c0-3.744,1.278-6.864,3.834-9.36c2.556-2.496,5.783-3.744,9.684-3.744s7.158,1.44,9.774,4.32l-2.7,2.952    c-1.2-1.152-2.334-1.956-3.402-2.412c-1.067-0.456-2.321-0.684-3.762-0.684c-2.544,0-4.68,0.822-6.408,2.466    c-1.728,1.644-2.592,3.744-2.592,6.3s0.858,4.692,2.574,6.408S168.196,35.579,170.547,35.579z"
         id="path13" /><path
         d="M187.503,39.431V14.267h4.248v10.908h12.492V14.267h4.248v25.164h-4.248V29.135h-12.492v10.296H187.503z"
         id="path15" /></g><rect
       y="21.43"
       width="16"
       height="18"
       id="rect17" /><rect
       x="20.25"
       width="16"
       height="39.43"
       id="rect19" /><rect
       x="40.5"
       y="14.5"
       width="16"
       height="24.93"
       id="rect21" /></g></svg>