<?xml version="1.0" encoding="utf-8"?>
<!-- Generator: Adobe Illustrator 16.0.0, SVG Export Plug-In . SVG Version: 6.00 Build 0)  -->
<!DOCTYPE svg PUBLIC "-//W3C//DTD SVG 1.1//EN" "http://www.w3.org/Graphics/SVG/1.1/DTD/svg11.dtd">
<svg version="1.1" id="Layer_1" xmlns="http://www.w3.org/2000/svg" xmlns:xlink="http://www.w3.org/1999/xlink" x="0px" y="0px"
	 width="682.978px" height="166.814px" viewBox="0 0 682.978 166.814" enable-background="new 0 0 682.978 166.814"
	 xml:space="preserve">
<g>
	<g>
		<path d="M119.852,41.961c1.75,1.465,2.627,3.721,2.627,6.768c0,3.049-0.895,5.281-2.682,6.697
			c-1.789,1.416-4.531,2.123-8.227,2.123h-4.464v7.381h-4.248V39.766h8.64C115.314,39.766,118.098,40.498,119.852,41.961z
			 M116.844,52.348c0.854-0.9,1.279-2.221,1.279-3.961s-0.541-2.971-1.621-3.689c-1.08-0.721-2.771-1.08-5.076-1.08h-4.319v10.08
			h4.932C114.391,53.697,115.992,53.246,116.844,52.348z"/>
		<path d="M147.379,39.766v3.996h-13.428v6.66h12.061v3.779h-12.061v6.732h13.859v3.996h-18.107V39.766H147.379z"/>
		<path d="M160.127,59.205l-2.52,5.725h-4.537l11.088-25.164h4.537l11.088,25.164h-4.537l-2.52-5.725H160.127z M170.998,55.281
			l-4.57-10.369l-4.572,10.369H170.998z"/>
		<path d="M196.089,61.076c1.465,0,2.725-0.244,3.781-0.736c1.055-0.492,2.16-1.279,3.312-2.359l2.734,2.809
			c-2.664,2.951-5.898,4.428-9.701,4.428c-3.805,0-6.96-1.225-9.468-3.672s-3.762-5.545-3.762-9.287
			c0-3.744,1.277-6.865,3.834-9.361c2.555-2.496,5.782-3.744,9.683-3.744s7.158,1.441,9.775,4.32l-2.701,2.953
			c-1.199-1.152-2.334-1.957-3.402-2.412c-1.066-0.457-2.32-0.686-3.762-0.686c-2.543,0-4.68,0.822-6.407,2.467
			c-1.729,1.645-2.592,3.744-2.592,6.301c0,2.555,0.857,4.691,2.574,6.408C191.704,60.219,193.737,61.076,196.089,61.076z"/>
		<path d="M213.046,64.93V39.766h4.248v10.908h12.492V39.766h4.248V64.93h-4.248V54.633h-12.492V64.93H213.046z"/>
	</g>
	<rect x="25.542" y="46.928" width="16" height="18"/>
	<rect x="45.792" y="25.498" width="16" height="39.43"/>
	<rect x="66.042" y="39.998" width="16" height="24.93"/>
</g>
<g>
	<path d="M55.466,140.63h-9.504L25.729,90.302h9.504l15.48,37.584l15.479-37.584h9.504L55.466,140.63z"/>
	<path d="M86.498,90.302h8.496v50.328h-8.496V90.302z"/>
	<path d="M127.789,96.926c-2.473,0-4.5,0.504-6.084,1.513c-1.584,1.008-2.376,2.532-2.376,4.571c0,2.041,0.792,3.601,2.376,4.681
		s4.956,2.244,10.116,3.491c5.159,1.249,9.047,3.001,11.664,5.257c2.615,2.257,3.924,5.58,3.924,9.972s-1.656,7.956-4.968,10.692
		c-3.312,2.735-7.657,4.104-13.032,4.104c-7.873,0-14.856-2.711-20.952-8.136l5.328-6.408c5.087,4.417,10.368,6.624,15.84,6.624
		c2.736,0,4.907-0.587,6.517-1.764c1.607-1.176,2.411-2.736,2.411-4.681c0-1.943-0.756-3.456-2.268-4.536
		c-1.512-1.079-4.116-2.062-7.812-2.951c-3.697-0.888-6.505-1.704-8.425-2.448s-3.624-1.716-5.111-2.916
		c-2.978-2.256-4.464-5.712-4.464-10.368c0-4.655,1.691-8.244,5.075-10.764c3.385-2.521,7.571-3.78,12.564-3.78
		c3.215,0,6.408,0.528,9.576,1.584c3.168,1.057,5.903,2.545,8.208,4.464l-4.536,6.408c-1.488-1.344-3.505-2.448-6.048-3.312
		C132.769,97.358,130.261,96.926,127.789,96.926z"/>
	<path d="M172.824,129.11c2.304,2.688,5.424,4.032,9.36,4.032c3.935,0,7.056-1.344,9.359-4.032
		c2.304-2.688,3.456-6.336,3.456-10.944V90.302h8.496v28.225c0,7.248-1.992,12.828-5.976,16.74
		c-3.985,3.912-9.097,5.867-15.336,5.867c-6.241,0-11.353-1.955-15.337-5.867s-5.976-9.492-5.976-16.74V90.302h8.496v27.864
		C169.368,122.774,170.521,126.423,172.824,129.11z"/>
	<path d="M226.32,129.182l-5.04,11.448h-9.072l22.176-50.328h9.072l22.176,50.328h-9.072l-5.04-11.448H226.32z M248.064,121.334
		l-9.145-20.736l-9.144,20.736H248.064z"/>
	<path d="M276.216,140.63V90.302h8.496v42.265h22.968v8.063H276.216z"/>
	<path d="M384.07,106.646c0,8.305-3.625,13.535-10.872,15.695l13.176,18.288h-10.8l-12.024-16.92h-11.159v16.92h-8.496V90.302h18.72
		c7.679,0,13.176,1.296,16.488,3.889C382.414,96.782,384.07,100.935,384.07,106.646z M372.767,113.774
		c1.728-1.487,2.592-3.876,2.592-7.164c0-3.287-0.889-5.544-2.664-6.769c-1.776-1.224-4.944-1.836-9.504-1.836h-10.8v18h10.584
		C367.773,116.006,371.038,115.263,372.767,113.774z"/>
	<path d="M435.262,90.302v7.992h-26.855v13.32h24.119v7.56h-24.119v13.464h27.72v7.992H399.91V90.302H435.262z"/>
	<path d="M484.581,94.694c3.504,2.928,5.256,7.44,5.256,13.536s-1.788,10.56-5.363,13.392c-3.577,2.833-9.062,4.248-16.452,4.248
		h-8.928v14.76h-8.496V90.302h17.279C475.51,90.302,481.077,91.767,484.581,94.694z M478.569,115.466
		c1.703-1.8,2.556-4.438,2.556-7.92c0-3.479-1.08-5.939-3.239-7.38c-2.16-1.439-5.545-2.16-10.152-2.16h-8.64v20.16h9.863
		C473.661,118.166,476.865,117.267,478.569,115.466z"/>
	<path d="M545.563,133.682c-5.088,4.969-11.376,7.452-18.863,7.452c-7.488,0-13.777-2.483-18.864-7.452
		c-5.088-4.968-7.632-11.159-7.632-18.575s2.544-13.608,7.632-18.576c5.087-4.968,11.376-7.452,18.864-7.452
		c7.487,0,13.775,2.484,18.863,7.452s7.633,11.16,7.633,18.576S550.651,128.714,545.563,133.682z M539.336,102.182
		c-3.433-3.551-7.645-5.327-12.636-5.327c-4.993,0-9.205,1.776-12.637,5.327c-3.432,3.554-5.147,7.861-5.147,12.925
		c0,5.064,1.716,9.372,5.147,12.924c3.432,3.553,7.644,5.328,12.637,5.328c4.991,0,9.203-1.775,12.636-5.328
		c3.432-3.552,5.148-7.859,5.148-12.924C544.484,110.043,542.768,105.735,539.336,102.182z"/>
	<path d="M607.7,106.646c0,8.305-3.625,13.535-10.872,15.695l13.176,18.288h-10.8l-12.024-16.92h-11.159v16.92h-8.496V90.302h18.72
		c7.679,0,13.176,1.296,16.488,3.889C606.044,96.782,607.7,100.935,607.7,106.646z M596.396,113.774
		c1.728-1.487,2.592-3.876,2.592-7.164c0-3.287-0.889-5.544-2.664-6.769c-1.776-1.224-4.944-1.836-9.504-1.836h-10.8v18h10.584
		C591.403,116.006,594.668,115.263,596.396,113.774z"/>
	<path d="M641.828,98.078v42.552h-8.496V98.078h-15.264v-7.776h39.023v7.776H641.828z"/>
</g>
</svg>
