<?xml version="1.0" encoding="UTF-8" standalone="no"?>
<!-- Generator: Adobe Illustrator 16.0.0, SVG Export Plug-In . SVG Version: 6.00 Build 0)  -->

<svg
   xmlns:dc="http://purl.org/dc/elements/1.1/"
   xmlns:cc="http://creativecommons.org/ns#"
   xmlns:rdf="http://www.w3.org/1999/02/22-rdf-syntax-ns#"
   xmlns:svg="http://www.w3.org/2000/svg"
   xmlns="http://www.w3.org/2000/svg"
   xmlns:sodipodi="http://sodipodi.sourceforge.net/DTD/sodipodi-0.dtd"
   xmlns:inkscape="http://www.inkscape.org/namespaces/inkscape"
   version="1.1"
   id="Layer_1"
   x="0px"
   y="0px"
   width="682.978px"
   height="166.814px"
   viewBox="0 0 682.978 166.814"
   enable-background="new 0 0 682.978 166.814"
   xml:space="preserve"
   inkscape:version="0.91 r13725"
   sodipodi:docname="57afa5a771bead8852a96984_peach-visualreport-white.svg"><metadata
     id="metadata53"><rdf:RDF><cc:Work
         rdf:about=""><dc:format>image/svg+xml</dc:format><dc:type
           rdf:resource="http://purl.org/dc/dcmitype/StillImage" /><dc:title></dc:title></cc:Work></rdf:RDF></metadata><defs
     id="defs51" /><sodipodi:namedview
     pagecolor="#ffffff"
     bordercolor="#666666"
     borderopacity="1"
     objecttolerance="10"
     gridtolerance="10"
     guidetolerance="10"
     inkscape:pageopacity="0"
     inkscape:pageshadow="2"
     inkscape:window-width="1422"
     inkscape:window-height="747"
     id="namedview49"
     showgrid="false"
     inkscape:zoom="0.42168267"
     inkscape:cx="341.48901"
     inkscape:cy="83.406998"
     inkscape:window-x="-8"
     inkscape:window-y="-8"
     inkscape:window-maximized="1"
     inkscape:current-layer="Layer_1" /><g
     id="g3"><g
       id="g5"><path
         fill="#FFFFFF"
         d="M119.852,41.961c1.75,1.465,2.627,3.721,2.627,6.768c0,3.049-0.895,5.281-2.682,6.697    c-1.789,1.416-4.531,2.123-8.227,2.123h-4.464v7.381h-4.248V39.766h8.64C115.314,39.766,118.098,40.498,119.852,41.961z     M116.844,52.348c0.854-0.9,1.279-2.221,1.279-3.961s-0.541-2.971-1.621-3.689c-1.08-0.721-2.771-1.08-5.076-1.08h-4.319v10.08    h4.932C114.391,53.697,115.992,53.246,116.844,52.348z"
         id="path7" /><path
         fill="#FFFFFF"
         d="M147.379,39.766v3.996h-13.428v6.66h12.061v3.779h-12.061v6.732h13.859v3.996h-18.107V39.766H147.379z"
         id="path9" /><path
         fill="#FFFFFF"
         d="M160.127,59.205l-2.52,5.725h-4.537l11.088-25.164h4.537l11.088,25.164h-4.537l-2.52-5.725H160.127z     M170.998,55.281l-4.57-10.369l-4.572,10.369H170.998z"
         id="path11" /><path
         fill="#FFFFFF"
         d="M196.089,61.076c1.465,0,2.725-0.244,3.781-0.736c1.055-0.492,2.16-1.279,3.312-2.359l2.734,2.809    c-2.664,2.951-5.898,4.428-9.701,4.428c-3.805,0-6.96-1.225-9.468-3.672s-3.762-5.545-3.762-9.287    c0-3.744,1.277-6.865,3.834-9.361c2.555-2.496,5.782-3.744,9.683-3.744s7.158,1.441,9.775,4.32l-2.701,2.953    c-1.199-1.152-2.334-1.957-3.402-2.412c-1.066-0.457-2.32-0.686-3.762-0.686c-2.543,0-4.68,0.822-6.407,2.467    c-1.729,1.645-2.592,3.744-2.592,6.301c0,2.555,0.857,4.691,2.574,6.408C191.704,60.219,193.737,61.076,196.089,61.076z"
         id="path13" /><path
         fill="#FFFFFF"
         d="M213.046,64.93V39.766h4.248v10.908h12.492V39.766h4.248V64.93h-4.248V54.633h-12.492V64.93H213.046z"
         id="path15" /></g><rect
       x="25.542"
       y="46.928"
       fill="#FFFFFF"
       width="16"
       height="18"
       id="rect17" /><rect
       x="45.792"
       y="25.498"
       fill="#FFFFFF"
       width="16"
       height="39.43"
       id="rect19" /><rect
       x="66.042"
       y="39.998"
       fill="#FFFFFF"
       width="16"
       height="24.93"
       id="rect21" /></g><g
     id="g23"
     transform="matrix(-1,0,0,1,682.82,0)"><path
       d="m 55.466,140.63 -9.504,0 -20.233,-50.328 9.504,0 15.48,37.584 15.479,-37.584 9.504,0 -20.23,50.328 z"
       id="path25"
       inkscape:connector-curvature="0"
       style="fill:#ffffff" /><path
       d="m 86.498,90.302 8.496,0 0,50.328 -8.496,0 0,-50.328 z"
       id="path27"
       inkscape:connector-curvature="0"
       style="fill:#ffffff" /><path
       d="m 127.789,96.926 c -2.473,0 -4.5,0.504 -6.084,1.513 -1.584,1.008 -2.376,2.532 -2.376,4.571 0,2.041 0.792,3.601 2.376,4.681 1.584,1.08 4.956,2.244 10.116,3.491 5.159,1.249 9.047,3.001 11.664,5.257 2.615,2.257 3.924,5.58 3.924,9.972 0,4.392 -1.656,7.956 -4.968,10.692 -3.312,2.735 -7.657,4.104 -13.032,4.104 -7.873,0 -14.856,-2.711 -20.952,-8.136 l 5.328,-6.408 c 5.087,4.417 10.368,6.624 15.84,6.624 2.736,0 4.907,-0.587 6.517,-1.764 1.607,-1.176 2.411,-2.736 2.411,-4.681 0,-1.943 -0.756,-3.456 -2.268,-4.536 -1.512,-1.079 -4.116,-2.062 -7.812,-2.951 -3.697,-0.888 -6.505,-1.704 -8.425,-2.448 -1.92,-0.744 -3.624,-1.716 -5.111,-2.916 -2.978,-2.256 -4.464,-5.712 -4.464,-10.368 0,-4.655 1.691,-8.244 5.075,-10.764 3.385,-2.521 7.571,-3.78 12.564,-3.78 3.215,0 6.408,0.528 9.576,1.584 3.168,1.057 5.903,2.545 8.208,4.464 l -4.536,6.408 c -1.488,-1.344 -3.505,-2.448 -6.048,-3.312 -2.543,-0.865 -5.051,-1.297 -7.523,-1.297 z"
       id="path29"
       inkscape:connector-curvature="0"
       style="fill:#ffffff" /><path
       d="m 172.824,129.11 c 2.304,2.688 5.424,4.032 9.36,4.032 3.935,0 7.056,-1.344 9.359,-4.032 2.304,-2.688 3.456,-6.336 3.456,-10.944 l 0,-27.864 8.496,0 0,28.225 c 0,7.248 -1.992,12.828 -5.976,16.74 -3.985,3.912 -9.097,5.867 -15.336,5.867 -6.241,0 -11.353,-1.955 -15.337,-5.867 -3.984,-3.912 -5.976,-9.492 -5.976,-16.74 l 0,-28.225 8.496,0 0,27.864 c 0.002,4.608 1.155,8.257 3.458,10.944 z"
       id="path31"
       inkscape:connector-curvature="0"
       style="fill:#ffffff" /><path
       d="m 226.32,129.182 -5.04,11.448 -9.072,0 22.176,-50.328 9.072,0 22.176,50.328 -9.072,0 -5.04,-11.448 -25.2,0 z m 21.744,-7.848 -9.145,-20.736 -9.144,20.736 18.289,0 z"
       id="path33"
       inkscape:connector-curvature="0"
       style="fill:#ffffff" /><path
       d="m 276.216,140.63 0,-50.328 8.496,0 0,42.265 22.968,0 0,8.063 -31.464,0 z"
       id="path35"
       inkscape:connector-curvature="0"
       style="fill:#ffffff" /><path
       d="m 384.07,106.646 c 0,8.305 -3.625,13.535 -10.872,15.695 l 13.176,18.288 -10.8,0 -12.024,-16.92 -11.159,0 0,16.92 -8.496,0 0,-50.327 18.72,0 c 7.679,0 13.176,1.296 16.488,3.889 3.311,2.591 4.967,6.744 4.967,12.455 z m -11.303,7.128 c 1.728,-1.487 2.592,-3.876 2.592,-7.164 0,-3.287 -0.889,-5.544 -2.664,-6.769 -1.776,-1.224 -4.944,-1.836 -9.504,-1.836 l -10.8,0 0,18 10.584,0 c 4.798,0.001 8.063,-0.742 9.792,-2.231 z"
       id="path37"
       inkscape:connector-curvature="0"
       style="fill:#ffffff" /><path
       d="m 435.262,90.302 0,7.992 -26.855,0 0,13.32 24.119,0 0,7.56 -24.119,0 0,13.464 27.72,0 0,7.992 -36.217,0 0,-50.328 35.352,0 z"
       id="path39"
       inkscape:connector-curvature="0"
       style="fill:#ffffff" /><path
       d="m 484.581,94.694 c 3.504,2.928 5.256,7.44 5.256,13.536 0,6.096 -1.788,10.56 -5.363,13.392 -3.577,2.833 -9.062,4.248 -16.452,4.248 l -8.928,0 0,14.76 -8.496,0 0,-50.328 17.279,0 c 7.633,0 13.2,1.465 16.704,4.392 z m -6.012,20.772 c 1.703,-1.8 2.556,-4.438 2.556,-7.92 0,-3.479 -1.08,-5.939 -3.239,-7.38 -2.16,-1.439 -5.545,-2.16 -10.152,-2.16 l -8.64,0 0,20.16 9.863,0 c 4.704,0 7.908,-0.899 9.612,-2.7 z"
       id="path41"
       inkscape:connector-curvature="0"
       style="fill:#ffffff" /><path
       d="m 545.563,133.682 c -5.088,4.969 -11.376,7.452 -18.863,7.452 -7.488,0 -13.777,-2.483 -18.864,-7.452 -5.088,-4.968 -7.632,-11.159 -7.632,-18.575 0,-7.416 2.544,-13.608 7.632,-18.576 5.087,-4.968 11.376,-7.452 18.864,-7.452 7.487,0 13.775,2.484 18.863,7.452 5.088,4.968 7.633,11.16 7.633,18.576 0,7.416 -2.545,13.607 -7.633,18.575 z m -6.227,-31.5 c -3.433,-3.551 -7.645,-5.327 -12.636,-5.327 -4.993,0 -9.205,1.776 -12.637,5.327 -3.432,3.554 -5.147,7.861 -5.147,12.925 0,5.064 1.716,9.372 5.147,12.924 3.432,3.553 7.644,5.328 12.637,5.328 4.991,0 9.203,-1.775 12.636,-5.328 3.432,-3.552 5.148,-7.859 5.148,-12.924 0,-5.064 -1.716,-9.372 -5.148,-12.925 z"
       id="path43"
       inkscape:connector-curvature="0"
       style="fill:#ffffff" /><path
       d="m 607.7,106.646 c 0,8.305 -3.625,13.535 -10.872,15.695 l 13.176,18.288 -10.8,0 -12.024,-16.92 -11.159,0 0,16.92 -8.496,0 0,-50.327 18.72,0 c 7.679,0 13.176,1.296 16.488,3.889 3.311,2.591 4.967,6.744 4.967,12.455 z m -11.304,7.128 c 1.728,-1.487 2.592,-3.876 2.592,-7.164 0,-3.287 -0.889,-5.544 -2.664,-6.769 -1.776,-1.224 -4.944,-1.836 -9.504,-1.836 l -10.8,0 0,18 10.584,0 c 4.799,0.001 8.064,-0.742 9.792,-2.231 z"
       id="path45"
       inkscape:connector-curvature="0"
       style="fill:#ffffff" /><path
       d="m 641.828,98.078 0,42.552 -8.496,0 0,-42.552 -15.264,0 0,-7.776 39.023,0 0,7.776 -15.263,0 z"
       id="path47"
       inkscape:connector-curvature="0"
       style="fill:#ffffff" /></g></svg>